{"accessors":[{"bufferView":2,"componentType":5126,"count":4952,"max":[2.989257335662842,3.3567631244659424,2.7480757236480713],"min":[-2.9892029762268066,-2.7067034244537354,-2.6984994411468506],"type":"VEC3"},{"bufferView":2,"byteOffset":59424,"componentType":5126,"count":4952,"max":[0.999747633934021,0.9870133399963379,0.9973248839378357],"min":[-0.999747633934021,-0.9999939203262329,-0.9958882927894592],"type":"VEC3"},{"bufferView":0,"componentType":5125,"count":29700,"type":"SCALAR"},{"bufferView":2,"byteOffset":118848,"componentType":5126,"count":199,"max":[0.9935950636863708,0.6667370200157166,0.9935956001281738],"min":[-0.9935951828956604,-0.6667057871818542,-0.9935946464538574],"type":"VEC3"},{"bufferView":2,"byteOffset":121236,"componentType":5126,"count":199,"max":[0.6836263537406921,0.8833729028701782,0.6836100816726685],"min":[-0.6836263537406921,-0.8834008574485779,-0.6836893558502197],"type":"VEC3"},{"bufferView":1,"componentType":5126,"count":199,"max":[1,1],"min":[0,0.01000000536441803],"type":"VEC2"},{"bufferView":0,"byteOffset":118800,"componentType":5125,"count":948,"type":"SCALAR"},{"bufferView":2,"byteOffset":123624,"componentType":5126,"count":1118,"max":[0.2725922167301178,0.2725921869277954,0.2725922167301178],"min":[-0.272592157125473,-0.2725921869277954,-0.2725922465324402],"type":"VEC3"},{"bufferView":2,"byteOffset":137040,"componentType":5126,"count":1118,"max":[1,1,1],"min":[-1,-1,-1],"type":"VEC3"},{"bufferView":1,"byteOffset":1592,"componentType":5126,"count":1118,"max":[1.000000238418579,1],"min":[0,0],"type":"VEC2"},{"bufferView":0,"byteOffset":122592,"componentType":5125,"count":5760,"type":"SCALAR"},{"bufferView":2,"byteOffset":150456,"componentType":5126,"count":559,"max":[0.2725922167301178,0.2725921869277954,0.2725922167301178],"min":[-0.272592157125473,-0.2725921869277954,-0.2725922465324402],"type":"VEC3"},{"bufferView":2,"byteOffset":157164,"componentType":5126,"count":559,"max":[1,1,1],"min":[-1,-1,-1],"type":"VEC3"},{"bufferView":1,"byteOffset":10536,"componentType":5126,"count":559,"max":[1.000000238418579,1],"min":[0,0],"type":"VEC2"},{"bufferView":0,"byteOffset":145632,"componentType":5125,"count":2880,"type":"SCALAR"},{"bufferView":2,"byteOffset":163872,"componentType":5126,"count":559,"max":[0.2725922167301178,0.2725921869277954,0.2725922167301178],"min":[-0.272592157125473,-0.2725921869277954,-0.2725922465324402],"type":"VEC3"},{"bufferView":2,"byteOffset":170580,"componentType":5126,"count":559,"max":[1,1,1],"min":[-1,-1,-1],"type":"VEC3"},{"bufferView":1,"byteOffset":15008,"componentType":5126,"count":559,"max":[1.000000238418579,1],"min":[0,0],"type":"VEC2"},{"bufferView":0,"byteOffset":157152,"componentType":5125,"count":2880,"type":"SCALAR"},{"bufferView":2,"byteOffset":177288,"componentType":5126,"count":559,"max":[0.2725922167301178,0.2725921869277954,0.2725922167301178],"min":[-0.272592157125473,-0.2725921869277954,-0.2725922465324402],"type":"VEC3"},{"bufferView":2,"byteOffset":183996,"componentType":5126,"count":559,"max":[1,1,1],"min":[-1,-1,-1],"type":"VEC3"},{"bufferView":1,"byteOffset":19480,"componentType":5126,"count":559,"max":[1.000000238418579,1],"min":[0,0],"type":"VEC2"},{"bufferView":0,"byteOffset":168672,"componentType":5125,"count":2880,"type":"SCALAR"},{"bufferView":2,"byteOffset":190704,"componentType":5126,"count":559,"max":[0.2725922167301178,0.2725921869277954,0.2725922167301178],"min":[-0.272592157125473,-0.2725921869277954,-0.2725922465324402],"type":"VEC3"},{"bufferView":2,"byteOffset":197412,"componentType":5126,"count":559,"max":[1,1,1],"min":[-1,-1,-1],"type":"VEC3"},{"bufferView":1,"byteOffset":23952,"componentType":5126,"count":559,"max":[1.000000238418579,1],"min":[0,0],"type":"VEC2"},{"bufferView":0,"byteOffset":180192,"componentType":5125,"count":2880,"type":"SCALAR"},{"bufferView":2,"byteOffset":204120,"componentType":5126,"count":559,"max":[0.2725922167301178,0.2725921869277954,0.2725922167301178],"min":[-0.272592157125473,-0.2725921869277954,-0.2725922465324402],"type":"VEC3"},{"bufferView":2,"byteOffset":210828,"componentType":5126,"count":559,"max":[1,1,1],"min":[-1,-1,-1],"type":"VEC3"},{"bufferView":1,"byteOffset":28424,"componentType":5126,"count":559,"max":[1.000000238418579,1],"min":[0,0],"type":"VEC2"},{"bufferView":0,"byteOffset":191712,"componentType":5125,"count":2880,"type":"SCALAR"},{"bufferView":2,"byteOffset":217536,"componentType":5126,"count":559,"max":[0.2725922167301178,0.2725921869277954,0.2725922167301178],"min":[-0.272592157125473,-0.2725921869277954,-0.2725922465324402],"type":"VEC3"},{"bufferView":2,"byteOffset":224244,"componentType":5126,"count":559,"max":[1,1,1],"min":[-1,-1,-1],"type":"VEC3"},{"bufferView":1,"byteOffset":32896,"componentType":5126,"count":559,"max":[1.000000238418579,1],"min":[0,0],"type":"VEC2"},{"bufferView":0,"byteOffset":203232,"componentType":5125,"count":2880,"type":"SCALAR"},{"bufferView":2,"byteOffset":230952,"componentType":5126,"count":559,"max":[0.2725922167301178,0.2725921869277954,0.2725922167301178],"min":[-0.272592157125473,-0.2725921869277954,-0.2725922465324402],"type":"VEC3"},{"bufferView":2,"byteOffset":237660,"componentType":5126,"count":559,"max":[1,1,1],"min":[-1,-1,-1],"type":"VEC3"},{"bufferView":1,"byteOffset":37368,"componentType":5126,"count":559,"max":[1.000000238418579,1],"min":[0,0],"type":"VEC2"},{"bufferView":0,"byteOffset":214752,"componentType":5125,"count":2880,"type":"SCALAR"},{"bufferView":2,"byteOffset":244368,"componentType":5126,"count":559,"max":[0.2725922167301178,0.2725921869277954,0.2725922167301178],"min":[-0.272592157125473,-0.2725921869277954,-0.2725922465324402],"type":"VEC3"},{"bufferView":2,"byteOffset":251076,"componentType":5126,"count":559,"max":[1,1,1],"min":[-1,-1,-1],"type":"VEC3"},{"bufferView":1,"byteOffset":41840,"componentType":5126,"count":559,"max":[1.000000238418579,1],"min":[0,0],"type":"VEC2"},{"bufferView":0,"byteOffset":226272,"componentType":5125,"count":2880,"type":"SCALAR"},{"bufferView":2,"byteOffset":257784,"componentType":5126,"count":559,"max":[0.2725922167301178,0.2725921869277954,0.2725922167301178],"min":[-0.272592157125473,-0.2725921869277954,-0.2725922465324402],"type":"VEC3"},{"bufferView":2,"byteOffset":264492,"componentType":5126,"count":559,"max":[1,1,1],"min":[-1,-1,-1],"type":"VEC3"},{"bufferView":1,"byteOffset":46312,"componentType":5126,"count":559,"max":[1.000000238418579,1],"min":[0,0],"type":"VEC2"},{"bufferView":0,"byteOffset":237792,"componentType":5125,"count":2880,"type":"SCALAR"},{"bufferView":2,"byteOffset":271200,"componentType":5126,"count":559,"max":[0.2725922167301178,0.2725921869277954,0.2725922167301178],"min":[-0.272592157125473,-0.2725921869277954,-0.2725922465324402],"type":"VEC3"},{"bufferView":2,"byteOffset":277908,"componentType":5126,"count":559,"max":[1,1,1],"min":[-1,-1,-1],"type":"VEC3"},{"bufferView":1,"byteOffset":50784,"componentType":5126,"count":559,"max":[1.000000238418579,1],"min":[0,0],"type":"VEC2"},{"bufferView":0,"byteOffset":249312,"componentType":5125,"count":2880,"type":"SCALAR"},{"bufferView":2,"byteOffset":284616,"componentType":5126,"count":559,"max":[0.2725922167301178,0.2725921869277954,0.2725922167301178],"min":[-0.272592157125473,-0.2725921869277954,-0.2725922465324402],"type":"VEC3"},{"bufferView":2,"byteOffset":291324,"componentType":5126,"count":559,"max":[1,1,1],"min":[-1,-1,-1],"type":"VEC3"},{"bufferView":1,"byteOffset":55256,"componentType":5126,"count":559,"max":[1.000000238418579,1],"min":[0,0],"type":"VEC2"},{"bufferView":0,"byteOffset":260832,"componentType":5125,"count":2880,"type":"SCALAR"},{"bufferView":2,"byteOffset":298032,"componentType":5126,"count":22,"max":[0.1424294412136078,0.5697175860404968,0.5418336391448975],"min":[-0.14242945611476898,-0.4609113037586212,-0.5418336987495422],"type":"VEC3"},{"bufferView":2,"byteOffset":298296,"componentType":5126,"count":22,"max":[1,0.8348148465156555,0.7939590811729431],"min":[-1,-0.6753680109977722,-0.7939590811729431],"type":"VEC3"},{"bufferView":0,"byteOffset":272352,"componentType":5125,"count":120,"type":"SCALAR"}],"asset":{"extras":{"author":"MrsM (https://sketchfab.com/MrsM)","license":"CC-BY-NC-4.0 (http://creativecommons.org/licenses/by-nc/4.0/)","source":"https://sketchfab.com/3d-models/xmas-tree-8c6c7a556b37410b94fd72dcb016326b","title":"Xmas tree"},"generator":"Sketchfab-12.67.0","version":"2.0"},"bufferViews":[{"buffer":0,"byteLength":272832,"name":"floatBufferViews","target":34963},{"buffer":0,"byteLength":59728,"byteOffset":272832,"byteStride":8,"name":"floatBufferViews","target":34962},{"buffer":0,"byteLength":298560,"byteOffset":332560,"byteStride":12,"name":"floatBufferViews","target":34962}],"buffers":[{"byteLength":631120,"uri":"data:application/octet-stream;base64,"}],"materials":[{"doubleSided":true,"name":"Default_OBJ","pbrMetallicRoughness":{"baseColorFactor":[0.015414622209519563,0.07009875915773134,0.02833823977927535,1],"metallicFactor":0.802824689709271,"roughnessFactor":0.5}},{"doubleSided":true,"name":"Material.001","pbrMetallicRoughness":{"baseColorFactor":[0.0341116,0.00433294,0.00463474,1],"metallicFactor":0,"roughnessFactor":0.5}},{"doubleSided":true,"name":"Material.008","pbrMetallicRoughness":{"baseColorFactor":[0.10362699999999983,0.7999999999999999,0.024311499999999965,1],"metallicFactor":0,"roughnessFactor":0}},{"doubleSided":true,"name":"Material.004","pbrMetallicRoughness":{"baseColorFactor":[0.11107999999999997,0.7999999999999999,0.7367729999999997,1],"metallicFactor":0,"roughnessFactor":0}},{"doubleSided":true,"name":"Material.006","pbrMetallicRoughness":{"baseColorFactor":[0.7999999999999999,0.014916500000000003,0.7293700000000003,1],"metallicFactor":0,"roughnessFactor":0}},{"doubleSided":true,"name":"Material.005","pbrMetallicRoughness":{"baseColorFactor":[0.787412,0.03953370000000002,0.019727500000000016,1],"metallicFactor":0,"roughnessFactor":0}},{"doubleSided":true,"name":"Material.007","pbrMetallicRoughness":{"baseColorFactor":[0.07511309999999982,0.034177399999999976,0.7999999999999999,1],"metallicFactor":0,"roughnessFactor":0}},{"doubleSided":true,"name":"Material.009","pbrMetallicRoughness":{"baseColorFactor":[0.8,0.300066,0.671722,1],"metallicFactor":0,"roughnessFactor":0}},{"doubleSided":true,"name":"Material.010","pbrMetallicRoughness":{"baseColorFactor":[0.009835270000000005,0.21157000000000006,0.14971599999999996,1],"metallicFactor":0,"roughnessFactor":0}},{"doubleSided":true,"name":"Material.011","pbrMetallicRoughness":{"baseColorFactor":[0.8,0.512138,0.160901,1],"metallicFactor":0,"roughnessFactor":0}},{"doubleSided":true,"name":"Material.012","pbrMetallicRoughness":{"baseColorFactor":[0.05714369999999997,0.22153599999999996,0.0525206,1],"metallicFactor":0,"roughnessFactor":0}},{"doubleSided":true,"name":"Material.013","pbrMetallicRoughness":{"baseColorFactor":[1,0.2797319999999998,0.05723199999999996,1],"metallicFactor":0,"roughnessFactor":0}},{"doubleSided":true,"name":"Material.003","pbrMetallicRoughness":{"baseColorFactor":[0.19182000000000007,0.07127139999999997,0.7999999999999999,1],"metallicFactor":0,"roughnessFactor":0}},{"doubleSided":true,"emissiveFactor":[0.8265207725284113,0.6546376008510202,0.040122403668228834],"name":"Material.002","pbrMetallicRoughness":{"baseColorFactor":[0.8,0.698072,0.0605864,1],"metallicFactor":0.5600502635673208,"roughnessFactor":0}}],"meshes":[{"name":"Object_0","primitives":[{"attributes":{"NORMAL":1,"POSITION":0},"indices":2,"material":0,"mode":4}]},{"name":"Object_1","primitives":[{"attributes":{"NORMAL":4,"POSITION":3,"TEXCOORD_0":5},"indices":6,"material":1,"mode":4}]},{"name":"Object_2","primitives":[{"attributes":{"NORMAL":8,"POSITION":7,"TEXCOORD_0":9},"indices":10,"material":2,"mode":4}]},{"name":"Object_3","primitives":[{"attributes":{"NORMAL":12,"POSITION":11,"TEXCOORD_0":13},"indices":14,"material":3,"mode":4}]},{"name":"Object_4","primitives":[{"attributes":{"NORMAL":16,"POSITION":15,"TEXCOORD_0":17},"indices":18,"material":4,"mode":4}]},{"name":"Object_5","primitives":[{"attributes":{"NORMAL":20,"POSITION":19,"TEXCOORD_0":21},"indices":22,"material":5,"mode":4}]},{"name":"Object_6","primitives":[{"attributes":{"NORMAL":24,"POSITION":23,"TEXCOORD_0":25},"indices":26,"material":6,"mode":4}]},{"name":"Object_7","primitives":[{"attributes":{"NORMAL":28,"POSITION":27,"TEXCOORD_0":29},"indices":30,"material":7,"mode":4}]},{"name":"Object_8","primitives":[{"attributes":{"NORMAL":32,"POSITION":31,"TEXCOORD_0":33},"indices":34,"material":8,"mode":4}]},{"name":"Object_9","primitives":[{"attributes":{"NORMAL":36,"POSITION":35,"TEXCOORD_0":37},"indices":38,"material":9,"mode":4}]},{"name":"Object_10","primitives":[{"attributes":{"NORMAL":40,"POSITION":39,"TEXCOORD_0":41},"indices":42,"material":10,"mode":4}]},{"name":"Object_11","primitives":[{"attributes":{"NORMAL":44,"POSITION":43,"TEXCOORD_0":45},"indices":46,"material":11,"mode":4}]},{"name":"Object_12","primitives":[{"attributes":{"NORMAL":48,"POSITION":47,"TEXCOORD_0":49},"indices":50,"material":11,"mode":4}]},{"name":"Object_13","primitives":[{"attributes":{"NORMAL":52,"POSITION":51,"TEXCOORD_0":53},"indices":54,"material":12,"mode":4}]},{"name":"Object_14","primitives":[{"attributes":{"NORMAL":56,"POSITION":55},"indices":57,"material":13,"mode":4}]}],"nodes":[{"children":[1],"matrix":[1,0,0,0,0,2.220446049250313e-16,-1,0,0,1,2.220446049250313e-16,0,0,0,0,1],"name":"Sketchfab_model"},{"children":[2],"name":"root"},{"children":[3,5,7,9,11,13,15,17,19,21,23,25,27,29,31],"matrix":[1,0,0,0,0,2.220446049250313e-16,1,0,0,-1,2.220446049250313e-16,0,0,0,0,1],"name":"GLTF_SceneRootNode"},{"children":[4],"matrix":[1,0,0,0,0,1,0,0,0,0,1,0,-0.000027032088837586343,3.024954080581665,-0.007696050219237804,1],"name":"Cone_0"},{"mesh":0,"name":"Object_4"},{"children":[6],"matrix":[1,0,0,0,0,1,0,0,0,0,1,0,0,0.000039076898247003555,0,1],"name":"Cylinder_1"},{"mesh":1,"name":"Object_6"},{"children":[8],"matrix":[1,0,0,0,0,1,0,0,0,0,1,0,-1.4999068975448608,3.2988221645355225,0,1],"name":"Sphere.001_2"},{"mesh":2,"name":"Object_8"},{"children":[10],"matrix":[1,0,0,0,0,1,0,0,0,0,1,0,0.024154020473361015,3.2988221645355225,-1.3899787664413452,1],"name":"Sphere.002_3"},{"mesh":3,"name":"Object_10"},{"children":[12],"matrix":[1,0,0,0,0,1,0,0,0,0,1,0,0.024154020473361015,3.2988221645355225,1.414925456047058,1],"name":"Sphere.003_4"},{"mesh":4,"name":"Object_12"},{"children":[14],"matrix":[1,0,0,0,0,1,0,0,0,0,1,0,1.701258897781372,2.4727253913879395,0.902188777923584,1],"name":"Sphere.004_5"},{"mesh":5,"name":"Object_14"},{"children":[16],"matrix":[1,0,0,0,0,1,0,0,0,0,1,0,-1.6955478191375732,2.4727253913879395,0.902188777923584,1],"name":"Sphere.005_6"},{"mesh":6,"name":"Object_16"},{"children":[18],"matrix":[1,0,0,0,0,1,0,0,0,0,1,0,1.3157492876052856,2.0779991149902344,-1.5497050285339355,1],"name":"Sphere.006_7"},{"mesh":7,"name":"Object_18"},{"children":[20],"matrix":[1,0,0,0,0,1,0,0,0,0,1,0,-0.05201849341392517,1.6072797775268555,2.345756769180298,1],"name":"Sphere.007_8"},{"mesh":8,"name":"Object_20"},{"children":[22],"matrix":[1,0,0,0,0,1,0,0,0,0,1,0,-0.12022140622138977,1.194927453994751,-2.592918634414673,1],"name":"Sphere.008_9"},{"mesh":9,"name":"Object_22"},{"children":[24],"matrix":[1,0,0,0,0,1,0,0,0,0,1,0,-1.4138495922088623,2.050468921661377,-1.4315030574798584,1],"name":"Sphere.009_10"},{"mesh":10,"name":"Object_24"},{"children":[26],"matrix":[1,0,0,0,0,1,0,0,0,0,1,0,2.5106606483459473,1.1295597553253174,0.42204582691192627,1],"name":"Sphere.010_11"},{"mesh":11,"name":"Object_26"},{"children":[28],"matrix":[1,0,0,0,0,1,0,0,0,0,1,0,-2.564953327178955,1.1295597553253174,0.42204582691192627,1],"name":"Sphere.011_12"},{"mesh":12,"name":"Object_28"},{"children":[30],"matrix":[1,0,0,0,0,1,0,0,0,0,1,0,1.4233068227767944,3.2988221645355225,0,1],"name":"Sphere_13"},{"mesh":13,"name":"Object_30"},{"children":[32],"matrix":[1,0,0,0,0,1,0,0,0,0,1,0,0,6.37550163269043,0.025441795587539673,1],"name":"Star_14"},{"mesh":14,"name":"Object_32"}],"scene":0,"scenes":[{"name":"Sketchfab_Scene","nodes":[0]}]}